<svg class="img-fluid" id="outputsvg" xmlns="http://www.w3.org/2000/svg" style="transform: matrix(0.769231, 0, 0, 0.769231, 0, 0); transform-origin: 50% 50%; cursor: move; max-height: none; transition: transform 200ms ease-in-out 0s;" width="512" height="512" viewBox="0 0 5120 5120"><g id="lt2ZubzU09mDkGkOmSjQHM" fill="rgb(11,49,55)" style="transform: none;"><g style="transform: none;"><path id="p8kwqMgRO" d="M297 5110 c-75 -13 -142 -63 -180 -135 l-22 -40 -3 -1550 c-2 -1105 0 -1573 8 -1629 43 -304 237 -573 507 -707 l83 -41 0 -159 0 -159 -31 -55 c-17 -30 -33 -55 -35 -55 -3 0 -71 53 -152 118 -181 145 -191 152 -220 152 -35 0 -72 -43 -72 -83 0 -38 15 -54 164 -173 l100 -79 -198 -5 c-193 -5 -198 -6 -217 -29 -26 -32 -25 -85 3 -111 21 -19 34 -20 300 -20 l278 0 11 -45 c15 -58 74 -150 124 -194 22 -19 67 -47 102 -63 228 -107 486 2 574 243 l21 57 192 4 c186 3 192 4 248 31 146 72 248 228 248 380 0 22 5 57 12 79 13 44 77 122 117 142 21 11 170 56 185 56 2 0 6 -14 10 -32 8 -42 76 -105 121 -114 47 -8 639 53 692 72 50 18 88 60 102 111 9 30 3 68 -29 222 -43 198 -58 233 -109 268 -68 46 -76 44 -414 -71 -172 -58 -323 -114 -336 -124 -42 -31 -63 -67 -69 -122 l-7 -53 -90 -24 c-212 -56 -324 -183 -345 -392 -15 -140 -61 -213 -163 -256 -28 -11 -76 -15 -203 -15 -163 0 -166 0 -172 22 -3 13 -20 52 -39 88 l-33 65 0 160 0 161 82 41 c243 120 411 329 491 611 l22 77 3 1574 c3 1733 6 1636 -59 1714 -17 21 -54 50 -83 65 l-51 27 -710 2 c-390 0 -732 -3 -758 -7z m1416 -202 c41 -22 46 -39 47 -155 l0 -113 -735 0 -735 0 0 111 c0 116 8 145 43 159 35 14 1354 12 1380 -2z m45 -1825 l-3 -1328 -23 -70 c-13 -38 -40 -100 -59 -137 l-35 -68 -614 0 -614 0 -41 81 c-22 45 -50 116 -62 158 -21 76 -21 81 -25 1370 -1 712 -1 1300 2 1308 4 11 135 13 741 13 l735 0 -2 -1327z m1384 -1815 c22 -101 23 -114 9 -120 -9 -3 -115 -16 -236 -28 -121 -12 -232 -23 -246 -26 -25 -5 -27 -2 -38 52 -6 32 -8 61 -3 66 6 6 465 165 483 167 3 1 17 -50 31 -111z m-1772 -29 c-8 -5 -40 -21 -70 -35 -107 -49 -132 -89 -138 -229 l-4 -100 -139 0 -139 0 0 103 c0 144 -19 176 -142 231 -38 17 -68 33 -68 36 0 3 161 5 358 5 249 0 352 -3 342 -11z m-262 -618 c77 -40 132 -122 132 -198 0 -118 -147 -240 -257 -212 -61 16 -127 70 -157 130 -31 63 -32 99 -5 159 27 60 64 98 124 127 57 27 102 25 163 -6z"></path><path id="p5gG00h5a" d="M421 3924 c-16 -20 -21 -41 -21 -84 0 -43 5 -64 21 -84 l20 -26 580 0 580 0 24 25 c21 20 25 34 25 85 0 51 -4 65 -25 85 l-24 25 -580 0 -580 0 -20 -26z"></path><path id="pIndBrSca" d="M495 3596 c-37 -17 -70 -52 -84 -89 -8 -19 -11 -285 -11 -824 0 -784 0 -796 21 -832 11 -20 36 -48 56 -61 l37 -25 485 -3 c329 -2 498 0 523 8 48 14 97 55 114 97 11 26 14 177 14 820 0 747 -1 790 -19 829 -10 23 -34 52 -52 65 l-34 24 -510 2 c-410 2 -516 0 -540 -11z m925 -906 l0 -700 -395 0 -395 0 0 700 0 700 395 0 395 0 0 -700z"></path><path id="pMc9HAMhh" d="M3675 5113 c-603 -20 -1083 -297 -1225 -709 -43 -122 -52 -191 -52 -377 2 -271 50 -575 111 -696 37 -71 107 -99 170 -67 35 19 56 50 71 107 18 67 44 112 89 152 91 82 249 76 293 -13 40 -79 8 -248 -85 -462 -149 -340 -163 -545 -51 -758 48 -91 101 -148 282 -303 182 -156 291 -266 351 -354 83 -124 171 -125 247 -5 51 80 182 212 362 365 176 149 237 218 285 320 58 122 75 234 57 365 -15 111 -39 187 -115 367 -81 189 -99 257 -100 366 0 127 22 157 125 166 115 11 216 -54 254 -160 8 -23 20 -60 28 -82 26 -75 109 -106 176 -65 91 55 162 386 163 758 0 230 -26 353 -107 501 -209 380 -718 604 -1329 584z m192 -229 c135 -65 248 -243 275 -434 29 -197 -50 -392 -204 -506 l-63 -46 -6 69 c-9 90 -36 151 -96 211 -80 79 -126 96 -273 99 -144 3 -137 -2 -139 108 -3 163 106 382 232 469 102 70 175 78 274 30z m-653 -111 c-55 -113 -75 -203 -81 -354 -6 -153 11 -261 50 -321 47 -71 165 -98 271 -62 58 20 90 9 141 -47 34 -38 35 -41 35 -127 0 -103 20 -157 71 -193 28 -20 49 -25 119 -27 84 -4 86 -3 180 44 134 67 238 171 304 304 66 134 79 207 73 405 -6 177 -22 256 -81 378 -17 37 -30 67 -28 67 2 0 42 -16 90 -36 260 -107 451 -291 521 -500 47 -141 52 -341 15 -580 l-17 -112 -47 47 c-103 103 -287 147 -445 106 -251 -66 -295 -380 -110 -786 178 -393 152 -559 -125 -782 -121 -97 -236 -205 -319 -297 l-77 -86 -39 49 c-43 52 -159 160 -326 304 -176 152 -220 209 -254 328 -34 116 -10 229 104 486 74 167 101 283 101 428 0 147 -16 206 -73 268 -73 79 -100 88 -267 88 -137 0 -148 -2 -203 -27 -31 -15 -81 -50 -111 -78 l-53 -50 -18 107 c-26 169 -31 381 -11 483 57 278 257 491 581 616 33 13 60 23 61 24 0 0 -15 -30 -32 -67z"></path></g></g><g id="l6Q6O6qNUk9XoJMCEIkGEGw" fill="rgb(155,173,175)" style="transform: none;"><g style="transform: none;"><path id="pw1Tru66N" d="M303 4940 c-37 -15 -43 -42 -43 -189 l0 -141 765 0 765 0 0 143 c-1 148 -4 163 -47 185 -26 14 -1405 16 -1440 2z"></path><path id="pLkPw5Ml3" d="M3197 4860 c-101 -34 -147 -56 -147 -70 0 -15 67 -12 82 3 7 8 27 16 43 20 17 3 38 9 48 12 14 6 17 2 17 -24 0 -17 3 -31 8 -31 4 0 24 27 44 60 35 57 36 60 15 60 -12 0 -62 -14 -110 -30z"></path><path id="piqdI0nrj" d="M4218 4830 c20 -33 40 -60 45 -60 4 0 7 14 7 30 0 35 4 36 65 10 26 -11 55 -20 66 -20 10 0 19 -4 19 -8 0 -11 46 -32 70 -32 11 0 20 -7 20 -15 0 -8 11 -17 25 -21 14 -3 25 -10 25 -15 0 -5 7 -9 15 -9 8 0 15 -4 15 -10 0 -5 8 -10 18 -10 9 0 22 -10 27 -22 8 -17 20 -24 50 -26 l40 -3 -25 26 c-84 90 -398 245 -496 245 -23 0 -22 -1 14 -60z"></path><path id="pyjHrBXSD" d="M2929 4731 c-41 -27 -90 -63 -109 -79 l-35 -31 38 -1 c30 0 37 3 37 20 0 15 7 20 25 20 18 0 25 5 25 20 0 16 7 20 30 20 17 0 30 4 30 9 0 5 11 12 25 15 18 5 25 13 25 31 0 14 -4 25 -9 25 -5 0 -42 -22 -82 -49z"></path><path id="pticggXAk" d="M3190 4704 c0 -44 18 -42 37 4 13 31 12 32 -12 32 -22 0 -25 -4 -25 -36z"></path><path id="pMjhIlu8S" d="M4283 4708 c19 -46 37 -48 37 -4 0 32 -3 36 -25 36 -24 0 -25 -1 -12 -32z"></path><path id="pItjaDCvx" d="M3141 4557 c-15 -87 -14 -117 4 -117 9 0 16 14 20 38 3 20 10 56 16 79 13 58 12 63 -10 63 -15 0 -21 -12 -30 -63z"></path><path id="pb0zPsqoR" d="M4320 4608 c0 -30 13 -58 26 -58 9 0 14 12 14 35 0 28 -4 35 -20 35 -11 0 -20 -6 -20 -12z"></path><path id="pagy0gOKi" d="M2738 4570 l-28 -35 26 -3 c33 -4 36 -1 32 39 l-3 34 -27 -35z"></path><path id="p13ECWoGmP" d="M4740 4567 c0 -31 4 -40 20 -44 11 -3 20 -14 20 -24 0 -11 5 -19 10 -19 6 0 10 -7 10 -15 0 -8 7 -15 15 -15 8 0 15 -8 15 -19 0 -10 11 -43 24 -72 29 -67 56 -173 56 -222 0 -30 4 -37 20 -37 23 0 25 15 9 109 -21 132 -82 265 -163 356 l-35 40 -1 -38z"></path><path id="pdp90StZV" d="M2681 4494 c-27 -35 -26 -44 4 -44 22 0 25 4 25 35 0 19 -2 35 -4 35 -3 0 -14 -12 -25 -26z"></path><path id="pKM7bAfIy" d="M4340 4503 c0 -34 12 -63 26 -63 10 0 14 13 14 40 0 33 -3 40 -20 40 -12 0 -20 -7 -20 -17z"></path><path id="pQFWLzQl2" d="M254 4427 c-3 -8 -3 -610 -2 -1338 4 -1320 4 -1324 25 -1400 12 -42 40 -113 62 -158 l41 -81 644 0 644 0 35 68 c19 37 46 99 59 137 l23 70 3 1358 2 1357 -765 0 c-630 0 -767 -2 -771 -13z m1341 -532 c33 -32 33 -78 0 -110 l-24 -25 -550 0 -550 0 -20 26 c-27 34 -27 74 0 108 l20 26 550 0 550 0 24 -25z m-46 -344 c18 -13 42 -42 52 -65 18 -39 19 -81 19 -799 0 -829 2 -798 -59 -850 -56 -47 -75 -48 -562 -45 l-455 3 -37 25 c-20 13 -45 41 -56 61 -21 36 -21 49 -21 802 0 518 3 775 11 794 6 15 20 39 32 52 47 51 47 51 562 48 l480 -2 34 -24z"></path><path id="pxBNX7xPo" d="M2601 4332 c-10 -18 -41 -160 -41 -187 0 -8 9 -15 20 -15 15 0 20 7 20 28 0 15 7 52 15 82 17 63 19 110 5 110 -5 0 -14 -8 -19 -18z"></path><path id="p3rT28OqR" d="M3133 4258 c4 -29 14 -77 22 -105 14 -49 18 -53 45 -53 26 0 30 -4 30 -29 0 -24 6 -31 31 -40 44 -15 89 -14 89 2 0 8 -18 19 -40 26 -79 24 -115 73 -140 194 -8 40 -16 57 -27 57 -13 0 -15 -9 -10 -52z"></path><path id="p13fGIJ5YN" d="M4346 4243 c-19 -98 -19 -103 2 -103 15 0 21 9 26 46 3 26 6 55 6 65 0 29 -28 22 -34 -8z"></path><path id="pus6JL7xf" d="M4279 4028 c-17 -35 -47 -84 -66 -110 l-35 -48 31 0 c24 0 31 4 31 20 0 11 7 20 15 20 9 0 15 9 15 25 0 14 6 25 13 25 18 0 47 63 47 100 0 47 -17 36 -51 -32z"></path><path id="pKXwGcgWL" d="M3510 4060 c0 -16 7 -20 35 -20 39 0 46 14 16 30 -31 16 -51 12 -51 -10z"></path><path id="p4xvIeIwn" d="M3393 4058 c-45 -15 -43 -38 2 -38 31 0 35 3 35 25 0 14 -1 25 -2 24 -2 -1 -18 -6 -35 -11z"></path><path id="p1eU9UJLG" d="M3614 3990 c4 -25 9 -66 12 -92 7 -57 30 -65 39 -15 9 44 -9 109 -36 133 l-21 19 6 -45z"></path><path id="p18cUQVT6W" d="M4910 3900 c0 -44 4 -60 14 -60 16 0 26 30 26 83 0 30 -4 37 -20 37 -18 0 -20 -7 -20 -60z"></path><path id="p2X9RwQCX" d="M2560 3898 c0 -39 12 -68 26 -68 10 0 14 13 14 45 0 38 -3 45 -20 45 -14 0 -20 -7 -20 -22z"></path><path id="pxPThYhEv" d="M3630 3803 c0 -53 11 -73 37 -73 16 0 23 4 19 13 -2 6 -10 29 -17 50 -14 44 -39 50 -39 10z"></path><path id="pLkEO4cQA" d="M4891 3733 c-7 -54 -14 -99 -14 -99 -1 -1 -16 1 -34 3 -26 4 -32 10 -35 32 -2 20 -9 27 -30 29 -16 2 -28 9 -28 18 0 8 -9 14 -20 14 -11 0 -20 5 -20 10 0 6 -13 10 -29 10 -16 0 -31 4 -33 10 -1 5 -33 12 -70 16 -58 6 -68 5 -68 -9 0 -11 12 -18 38 -22 85 -14 99 -18 145 -41 73 -36 113 -71 156 -135 l39 -58 11 47 c13 56 41 230 41 255 0 10 -8 17 -18 17 -15 0 -20 -15 -31 -97z"></path><path id="pDz4LYIas" d="M4075 3779 c-22 -17 -70 -46 -107 -65 -73 -37 -85 -54 -38 -54 37 0 100 29 100 47 0 7 11 13 25 13 16 0 25 6 25 15 0 8 9 15 20 15 16 0 20 7 20 30 0 17 -1 30 -2 30 -2 0 -21 -14 -43 -31z"></path><path id="p1DN8DyO2q" d="M2570 3791 c0 -16 40 -245 46 -265 5 -16 11 -11 34 26 27 43 124 138 141 138 5 0 9 5 9 10 0 6 -16 10 -35 10 -28 0 -35 -4 -35 -20 0 -14 -7 -20 -23 -20 -32 0 -47 -18 -47 -57 0 -62 -18 -33 -34 55 -9 48 -16 97 -16 110 0 15 -6 22 -20 22 -11 0 -20 -4 -20 -9z"></path><path id="p1GHZsyKg6" d="M4383 3768 c-24 -5 -43 -13 -43 -19 0 -5 -9 -9 -20 -9 -11 0 -20 -4 -20 -10 0 -5 -7 -10 -15 -10 -9 0 -15 -9 -15 -25 0 -20 -5 -25 -25 -25 -16 0 -25 -6 -25 -15 0 -8 -4 -15 -9 -15 -5 0 -18 -21 -28 -47 -27 -70 -24 -289 5 -395 24 -87 78 -223 96 -241 7 -7 16 -24 19 -37 3 -14 22 -70 41 -125 20 -55 36 -112 36 -127 0 -22 5 -28 21 -28 20 0 21 4 14 48 -11 74 -50 189 -110 319 -180 398 -136 667 119 730 113 28 74 57 -41 31z"></path><path id="pKZKv9ueG" d="M2870 3750 c0 -21 10 -24 48 -14 36 10 27 34 -13 34 -28 0 -35 -4 -35 -20z"></path><path id="pgU6Xcerl" d="M3060 3756 c0 -13 28 -26 58 -26 6 0 12 9 12 20 0 16 -7 20 -35 20 -23 0 -35 -5 -35 -14z"></path><path id="p1Bwd7ViOF" d="M3700 3691 c0 -24 4 -31 20 -31 11 0 20 -4 20 -10 0 -5 16 -10 35 -10 42 0 48 25 8 35 -15 3 -39 15 -55 26 l-28 20 0 -30z"></path><path id="p2fgmBjiX" d="M3296 3543 c8 -25 14 -79 14 -120 0 -66 2 -73 20 -73 18 0 20 7 20 57 0 31 -5 85 -11 120 -10 56 -14 63 -34 63 -23 0 -23 -1 -9 -47z"></path><path id="pt1PxAKvi" d="M3296 3269 c-20 -89 -20 -89 3 -89 14 0 21 12 30 57 15 75 14 103 -3 103 -9 0 -19 -25 -30 -71z"></path><path id="p1H1LCedgz" d="M3224 3043 c-47 -105 -46 -103 -20 -103 26 0 36 17 36 61 0 19 5 29 15 29 10 0 15 11 15 35 0 51 -17 43 -46 -22z"></path><path id="plu2ShoZz" d="M3149 2873 c-23 -52 -59 -185 -59 -215 0 -11 7 -18 18 -18 13 0 20 14 30 58 21 99 36 152 44 152 5 0 8 16 8 35 0 49 -17 44 -41 -12z"></path><path id="pgR0MUfvv" d="M4376 2519 c-7 -46 -45 -142 -58 -147 -4 -2 -8 -10 -8 -17 0 -7 -7 -15 -15 -19 -10 -3 -15 -19 -15 -42 0 -36 0 -37 20 -19 35 31 81 113 101 176 25 79 25 109 0 109 -14 0 -20 -10 -25 -41z"></path><path id="p4GG8A6D1" d="M3095 2503 c11 -59 45 -142 71 -171 l23 -27 1 37 c0 20 -7 43 -15 52 -8 8 -15 22 -15 30 0 9 -4 16 -9 16 -5 0 -11 23 -15 50 -6 42 -10 50 -27 50 -19 0 -20 -4 -14 -37z"></path><path id="pfpn2FGSp" d="M4183 2220 c-3 -11 -14 -20 -24 -20 -12 0 -19 -7 -19 -19 0 -14 -8 -21 -27 -23 -22 -2 -29 -9 -31 -30 -3 -23 -8 -28 -31 -28 -35 0 -61 -28 -61 -64 0 -28 0 -28 24 -9 25 19 167 140 220 185 l31 27 -38 1 c-31 0 -40 -4 -44 -20z"></path><path id="p15llrFHQ4" d="M3290 2196 c8 -8 56 -49 105 -91 79 -67 90 -74 93 -55 6 35 -5 50 -38 50 -25 0 -30 4 -30 25 0 22 -4 25 -35 25 -32 0 -35 2 -35 30 0 28 -3 30 -37 30 -32 0 -35 -2 -23 -14z"></path><path id="ptJfkuXqw" d="M3540 1978 l45 -40 3 26 c5 38 -14 56 -57 56 l-36 -1 45 -41z"></path><path id="pt8p8PZ31" d="M3817 1892 c-10 -10 -17 -31 -17 -45 0 -26 -2 -27 -50 -27 l-50 0 0 35 c0 33 -2 35 -31 35 -36 0 -38 5 41 -88 l44 -53 48 53 c27 29 57 65 69 81 l20 27 -29 0 c-16 0 -36 -8 -45 -18z"></path><path id="p13DPGrA08" d="M575 1255 c17 -14 68 -44 115 -66 147 -72 160 -92 160 -254 0 -63 1 -115 3 -115 1 0 24 7 51 15 62 19 188 19 241 0 22 -8 41 -15 41 -15 1 0 4 51 6 113 6 151 29 192 133 238 50 22 175 97 175 105 0 2 -215 4 -477 4 l-478 -1 30 -24z"></path></g></g><g id="l4vo4d0PAw2lgQ92fZcs0zW" fill="rgb(56,195,93)" style="transform: none;"><g style="transform: none;"><path id="p1ETWT138K" d="M3770 4930 c0 -16 7 -20 35 -20 40 0 49 24 13 34 -38 10 -48 7 -48 -14z"></path><path id="pVwr9SBQE" d="M3529 4860 c-15 -11 -34 -31 -43 -45 -16 -25 -16 -25 14 -25 20 0 30 5 30 15 0 8 7 15 15 15 10 0 15 10 15 30 0 35 2 35 -31 10z"></path><path id="p1DfupEHD3" d="M3950 4853 c0 -34 30 -63 65 -63 25 0 25 1 9 25 -9 14 -30 35 -45 46 l-29 20 0 -28z"></path><path id="pTzEEH404" d="M3401 4688 l-21 -43 21 -3 c27 -5 39 13 39 56 0 44 -14 40 -39 -10z"></path><path id="pYpHEZJas" d="M4070 4695 c0 -24 5 -35 15 -35 10 0 15 -11 15 -35 0 -19 4 -35 9 -35 5 0 11 -22 15 -50 5 -41 10 -50 26 -50 11 0 20 6 20 13 0 44 -73 227 -91 227 -5 0 -9 -16 -9 -35z"></path><path id="p13UZzb7ts" d="M3336 4498 c-10 -38 -7 -48 14 -48 16 0 20 7 20 35 0 40 -24 49 -34 13z"></path><path id="pthUumYPY" d="M3540 4267 c0 -7 25 -21 56 -30 31 -10 76 -31 100 -48 l44 -30 0 31 c0 20 -5 30 -15 30 -8 0 -15 5 -15 10 0 6 -9 10 -20 10 -11 0 -20 5 -20 10 0 6 -13 10 -30 10 -16 0 -30 5 -30 10 0 6 -16 10 -35 10 -22 0 -35 -5 -35 -13z"></path><path id="p17MpXhyX4" d="M3348 4264 c-3 -3 -4 -13 -1 -23 4 -16 9 -17 39 -8 44 14 45 37 1 37 -19 0 -36 -3 -39 -6z"></path><path id="pftaNdT0w" d="M4130 4215 c0 -40 24 -49 34 -12 10 37 7 47 -14 47 -16 0 -20 -7 -20 -35z"></path><path id="p13jyNQBSY" d="M4100 4124 c0 -44 18 -42 37 4 13 31 12 32 -12 32 -22 0 -25 -4 -25 -36z"></path><path id="p50RXfpFM" d="M3770 4120 c31 -44 40 -45 40 -6 0 33 -2 36 -31 36 l-30 0 21 -30z"></path><path id="p19QUTsxTF" d="M3830 4008 c0 -30 13 -58 26 -58 9 0 14 12 14 35 0 28 -4 35 -20 35 -11 0 -20 -6 -20 -12z"></path><path id="p0Bartcae" d="M600 3400 c0 -20 7 -20 425 -20 418 0 425 0 425 20 0 20 -7 20 -425 20 -418 0 -425 0 -425 -20z"></path><path id="pxR1sZZ2f" d="M2863 1336 c-150 -51 -275 -95 -278 -98 -4 -3 1 -45 11 -92 16 -82 18 -86 43 -86 40 1 561 57 566 62 5 5 -56 291 -64 299 -3 4 -129 -35 -278 -85z"></path><path id="pzXlwCHwJ" d="M915 657 c-218 -106 -183 -425 52 -478 175 -40 341 120 303 293 -13 63 -30 96 -72 134 -49 47 -96 67 -168 71 -54 3 -74 0 -115 -20z"></path></g></g><g id="l3wFWro464Kos92Cjzk0Tx9" fill="rgb(56,195,93)" style="transform: none;"><g style="transform: none;"><path id="p16B56HDDw" d="M3664 4936 c-47 -15 -104 -47 -104 -58 0 -4 16 -8 35 -8 19 0 35 4 35 8 0 5 25 15 55 22 42 10 55 18 55 32 0 21 -18 22 -76 4z"></path><path id="pouJ1yWJ6" d="M3810 4922 c0 -12 16 -24 50 -37 28 -11 50 -23 50 -27 0 -4 14 -8 30 -8 25 0 30 -4 30 -25 0 -20 5 -25 25 -25 21 0 25 -5 25 -30 0 -16 5 -30 10 -30 6 0 10 -7 10 -15 0 -9 9 -15 25 -15 30 0 31 6 5 45 -73 111 -260 231 -260 167z"></path><path id="ppWcwIzz7" d="M3225 4866 c-124 -41 -178 -65 -264 -116 -194 -115 -316 -268 -373 -467 -21 -70 -23 -98 -22 -278 1 -191 10 -283 45 -443 l11 -52 38 58 c46 67 89 103 168 140 75 35 228 44 300 16 55 -20 127 -84 152 -134 68 -133 37 -347 -89 -628 -66 -146 -91 -231 -98 -333 -7 -98 6 -166 46 -248 33 -69 87 -129 209 -233 172 -146 280 -248 344 -323 l62 -74 35 42 c75 89 240 252 336 330 195 159 251 232 281 366 32 141 4 281 -101 510 -139 305 -151 522 -36 654 141 160 471 109 589 -91 l26 -46 12 48 c49 192 65 567 30 701 -63 241 -224 423 -480 541 -74 33 -257 96 -263 90 -2 -2 8 -21 22 -42 105 -153 151 -326 142 -537 -8 -212 -60 -332 -206 -477 -105 -104 -207 -161 -300 -168 -69 -5 -107 12 -148 65 -26 33 -28 44 -29 128 -2 97 -13 132 -56 172 -47 44 -120 55 -185 28 -73 -31 -146 -13 -200 48 -71 81 -85 331 -28 507 29 91 67 171 110 234 14 21 25 40 23 41 -2 2 -48 -11 -103 -29z"></path><path id="pqlcwIfqv" d="M3511 4839 c-39 -39 -91 -108 -91 -121 0 -4 11 -8 25 -8 16 0 25 6 25 15 0 8 5 15 10 15 6 0 10 14 10 30 0 25 4 30 25 30 28 0 38 16 33 51 -3 22 -4 21 -37 -12z"></path><path id="pfywlB2aQ" d="M3380 4640 c-12 -22 -50 -165 -50 -187 0 -7 8 -13 19 -13 15 0 21 13 32 75 7 41 17 75 21 75 4 0 8 16 8 35 0 39 -14 46 -30 15z"></path><path id="pkDdkQvDc" d="M4110 4595 c0 -28 4 -35 20 -35 22 0 26 20 10 51 -16 30 -30 23 -30 -16z"></path><path id="phZQbGm3X" d="M4140 4460 c0 -33 3 -40 20 -40 21 0 25 16 14 58 -11 39 -34 27 -34 -18z"></path><path id="pF0KaClpn" d="M3330 4318 c0 -7 5 -30 11 -51 9 -34 13 -38 32 -32 12 4 59 9 105 12 73 5 82 8 82 25 0 19 -6 20 -92 17 -90 -4 -93 -3 -96 19 -4 23 -42 33 -42 10z"></path><path id="pkQ7DNp5t" d="M4140 4275 c0 -40 24 -49 34 -12 10 37 7 47 -14 47 -16 0 -20 -7 -20 -35z"></path><path id="pK15wm1Rj" d="M3580 4257 c0 -8 16 -18 35 -24 33 -11 35 -10 35 13 0 21 -5 24 -35 24 -22 0 -35 -5 -35 -13z"></path><path id="pxTlwX63t" d="M4079 4105 c-7 -19 -17 -35 -21 -35 -4 0 -8 -9 -8 -20 0 -11 -7 -20 -15 -20 -10 0 -15 -10 -15 -30 0 -27 -3 -30 -30 -30 -20 0 -30 -5 -30 -15 0 -8 -9 -15 -20 -15 -11 0 -20 -4 -20 -8 0 -5 -18 -15 -39 -22 -28 -9 -41 -20 -46 -38 -3 -13 -4 -26 -3 -28 8 -7 107 46 154 83 56 45 116 121 139 177 15 36 15 36 -9 36 -19 0 -28 -8 -37 -35z"></path><path id="p12qeO0WUz" d="M3823 4025 c6 -19 16 -35 24 -35 8 0 13 13 13 35 0 30 -3 35 -24 35 -23 0 -24 -2 -13 -35z"></path></g></g><g id="l1aNd7QFlxa4FcoKcTKbOS3" fill="rgb(255,254,249)" style="transform: none;"><g style="transform: none;"><path id="p1FmnLQtvX" d="M3666 4934 c-68 -22 -114 -53 -174 -119 -123 -134 -191 -380 -151 -541 10 -40 15 -45 33 -40 12 4 45 11 74 17 134 26 285 -51 358 -183 26 -47 29 -63 29 -140 l0 -86 70 36 c187 99 287 297 272 538 -23 340 -273 594 -511 518z"></path></g></g><g id="l6atYqJGYzRyvel9TXND0Di" fill="rgb(245,245,245)" style="transform: none;"><g style="transform: none;"><path id="pV5L8o9NI" d="M600 2685 l0 -725 425 0 425 0 0 725 0 725 -425 0 -425 0 0 -725z"></path></g></g></svg>